HIERARCHY
ROOT Hips
{
	OFFSET 0.000000 97.167313 0.000000
	CHANNELS 6 Xposition Yposition Zposition Xrotation Yrotation Zrotation
	JOINT Spine
	{
		OFFSET 0.000000 13.784798 0.064400
		CHANNELS 3 Xrotation Yrotation Zrotation
		JOINT Spine1
		{
			OFFSET 0.000000 12.037903 0.404700
			CHANNELS 3 Xrotation Yrotation Zrotation
			JOINT Spine2
			{
				OFFSET 0.000000 17.795601 0.420200
				CHANNELS 3 Xrotation Yrotation Zrotation
				JOINT Neck
				{
					OFFSET 0.000000 39.131302 11.954600
					CHANNELS 3 Xrotation Yrotation Zrotation
					JOINT Head
					{
						OFFSET 0.000000 14.456192 15.627699
						CHANNELS 3 Xrotation Yrotation Zrotation
						JOINT HeadTop_End
						{
							OFFSET 0.000000 15.703506 7.603401
							CHANNELS 3 Xrotation Yrotation Zrotation
							End Site
							{
								OFFSET 0.000000 17.447403 0.000000
							}
						}
					}
				}
				JOINT LeftShoulder
				{
					OFFSET 17.399500 24.608795 1.168800
					CHANNELS 3 Xrotation Yrotation Zrotation
					JOINT LeftArm
					{
						OFFSET 18.980635 5.765305 1.818600
						CHANNELS 3 Xrotation Yrotation Zrotation
						JOINT LeftForeArm
						{
							OFFSET 49.290169 0.000000 0.000000
							CHANNELS 3 Xrotation Yrotation Zrotation
							JOINT LeftHand
							{
								OFFSET 31.562012 0.000000 0.000000
								CHANNELS 3 Xrotation Yrotation Zrotation
								JOINT LeftHandThumb1
								{
									OFFSET 6.133995 -4.388519 7.076070
									CHANNELS 3 Xrotation Yrotation Zrotation
									JOINT LeftHandThumb2
									{
										OFFSET 6.037666 -3.485840 3.485847
										CHANNELS 3 Xrotation Yrotation Zrotation
										JOINT LeftHandThumb3
										{
											OFFSET 6.496506 -3.750763 3.750761
											CHANNELS 3 Xrotation Yrotation Zrotation
											JOINT LeftHandThumb4
											{
												OFFSET 5.616882 -3.242905 3.242910
												CHANNELS 3 Xrotation Yrotation Zrotation
												End Site
												{
													OFFSET -1.254608 7.132141 0.375429
												}
											}
										}
									}
								}
								JOINT LeftHandPinky1
								{
									OFFSET 18.920792 -0.453171 -11.426712
									CHANNELS 3 Xrotation Yrotation Zrotation
									JOINT LeftHandPinky2
									{
										OFFSET 4.919586 0.000000 0.000000
										CHANNELS 3 Xrotation Yrotation Zrotation
										JOINT LeftHandPinky3
										{
											OFFSET 5.233047 0.000000 0.000000
											CHANNELS 3 Xrotation Yrotation Zrotation
											JOINT LeftHandPinky4
											{
												OFFSET 5.571716 0.000000 0.000000
												CHANNELS 3 Xrotation Yrotation Zrotation
												End Site
												{
													OFFSET -3.459808 4.342407 -0.466164
												}
											}
										}
									}
								}
								JOINT LeftHandRing1
								{
									OFFSET 22.726120 -0.094986 -6.500475
									CHANNELS 3 Xrotation Yrotation Zrotation
									JOINT LeftHandRing2
									{
										OFFSET 6.408615 0.000000 0.000000
										CHANNELS 3 Xrotation Yrotation Zrotation
										JOINT LeftHandRing3
										{
											OFFSET 6.150223 0.000000 0.000000
											CHANNELS 3 Xrotation Yrotation Zrotation
											JOINT LeftHandRing4
											{
												OFFSET 6.145386 0.000000 0.000000
												CHANNELS 3 Xrotation Yrotation Zrotation
												End Site
												{
													OFFSET -3.671402 4.923981 -0.202372
												}
											}
										}
									}
								}
								JOINT LeftHandMiddle1
								{
									OFFSET 23.373947 0.000000 0.000001
									CHANNELS 3 Xrotation Yrotation Zrotation
									JOINT LeftHandMiddle2
									{
										OFFSET 6.996567 0.000000 0.000000
										CHANNELS 3 Xrotation Yrotation Zrotation
										JOINT LeftHandMiddle3
										{
											OFFSET 7.015945 0.000000 0.000000
											CHANNELS 3 Xrotation Yrotation Zrotation
											JOINT LeftHandMiddle4
											{
												OFFSET 7.721573 0.000000 0.000000
												CHANNELS 3 Xrotation Yrotation Zrotation
												End Site
												{
													OFFSET -4.651108 6.158463 0.251582
												}
											}
										}
									}
								}
								JOINT LeftHandIndex1
								{
									OFFSET 21.310577 -0.490082 6.209344
									CHANNELS 3 Xrotation Yrotation Zrotation
									JOINT LeftHandIndex2
									{
										OFFSET 7.536453 0.000000 0.000000
										CHANNELS 3 Xrotation Yrotation Zrotation
										JOINT LeftHandIndex3
										{
											OFFSET 7.512344 0.000000 0.000000
											CHANNELS 3 Xrotation Yrotation Zrotation
											JOINT LeftHandIndex4
											{
												OFFSET 10.212402 0.000000 0.000001
												CHANNELS 3 Xrotation Yrotation Zrotation
												End Site
												{
													OFFSET -5.180801 8.690506 1.388433
												}
											}
										}
									}
								}
							}
						}
					}
				}
				JOINT RightShoulder
				{
					OFFSET -17.399500 24.608795 1.168800
					CHANNELS 3 Xrotation Yrotation Zrotation
					JOINT RightArm
					{
						OFFSET -18.980635 5.765305 1.818600
						CHANNELS 3 Xrotation Yrotation Zrotation
						JOINT RightForeArm
						{
							OFFSET -49.290169 0.000000 0.000000
							CHANNELS 3 Xrotation Yrotation Zrotation
							JOINT RightHand
							{
								OFFSET -31.562012 0.000000 0.000000
								CHANNELS 3 Xrotation Yrotation Zrotation
								JOINT RightHandThumb1
								{
									OFFSET -6.133995 -4.388519 7.076070
									CHANNELS 3 Xrotation Yrotation Zrotation
									JOINT RightHandThumb2
									{
										OFFSET -6.037666 -3.485840 3.485847
										CHANNELS 3 Xrotation Yrotation Zrotation
										JOINT RightHandThumb3
										{
											OFFSET -6.496506 -3.750763 3.750761
											CHANNELS 3 Xrotation Yrotation Zrotation
											JOINT RightHandThumb4
											{
												OFFSET -5.616882 -3.242905 3.242910
												CHANNELS 3 Xrotation Yrotation Zrotation
												End Site
												{
													OFFSET 1.254608 7.132141 0.375429
												}
											}
										}
									}
								}
								JOINT RightHandIndex1
								{
									OFFSET -21.310577 -0.490082 6.209344
									CHANNELS 3 Xrotation Yrotation Zrotation
									JOINT RightHandIndex2
									{
										OFFSET -7.536453 0.000000 0.000000
										CHANNELS 3 Xrotation Yrotation Zrotation
										JOINT RightHandIndex3
										{
											OFFSET -7.512344 0.000000 0.000000
											CHANNELS 3 Xrotation Yrotation Zrotation
											JOINT RightHandIndex4
											{
												OFFSET -10.212402 0.000000 0.000001
												CHANNELS 3 Xrotation Yrotation Zrotation
												End Site
												{
													OFFSET 5.180801 8.690506 1.388433
												}
											}
										}
									}
								}
								JOINT RightHandMiddle1
								{
									OFFSET -23.373947 0.000000 0.000001
									CHANNELS 3 Xrotation Yrotation Zrotation
									JOINT RightHandMiddle2
									{
										OFFSET -6.996567 0.000000 0.000000
										CHANNELS 3 Xrotation Yrotation Zrotation
										JOINT RightHandMiddle3
										{
											OFFSET -7.015945 0.000000 0.000000
											CHANNELS 3 Xrotation Yrotation Zrotation
											JOINT RightHandMiddle4
											{
												OFFSET -7.721573 0.000000 0.000000
												CHANNELS 3 Xrotation Yrotation Zrotation
												End Site
												{
													OFFSET 4.651108 6.158463 0.251582
												}
											}
										}
									}
								}
								JOINT RightHandRing1
								{
									OFFSET -22.726120 -0.094986 -6.500475
									CHANNELS 3 Xrotation Yrotation Zrotation
									JOINT RightHandRing2
									{
										OFFSET -6.408615 0.000000 0.000000
										CHANNELS 3 Xrotation Yrotation Zrotation
										JOINT RightHandRing3
										{
											OFFSET -6.150223 0.000000 0.000000
											CHANNELS 3 Xrotation Yrotation Zrotation
											JOINT RightHandRing4
											{
												OFFSET -6.145386 0.000000 0.000000
												CHANNELS 3 Xrotation Yrotation Zrotation
												End Site
												{
													OFFSET 3.671402 4.923981 -0.202372
												}
											}
										}
									}
								}
								JOINT RightHandPinky1
								{
									OFFSET -18.920792 -0.453171 -11.426712
									CHANNELS 3 Xrotation Yrotation Zrotation
									JOINT RightHandPinky2
									{
										OFFSET -4.919586 0.000000 0.000000
										CHANNELS 3 Xrotation Yrotation Zrotation
										JOINT RightHandPinky3
										{
											OFFSET -5.233047 0.000000 0.000000
											CHANNELS 3 Xrotation Yrotation Zrotation
											JOINT RightHandPinky4
											{
												OFFSET -5.571716 0.000000 0.000000
												CHANNELS 3 Xrotation Yrotation Zrotation
												End Site
												{
													OFFSET 3.459808 4.342407 -0.466164
												}
											}
										}
									}
								}
							}
						}
					}
				}
			}
		}
	}
	JOINT LeftUpLeg
	{
		OFFSET 19.899099 -7.885101 -3.429500
		CHANNELS 3 Xrotation Yrotation Zrotation
		JOINT LeftLeg
		{
			OFFSET 1.745560 -36.997807 10.304700
			CHANNELS 3 Xrotation Yrotation Zrotation
			JOINT LeftFoot
			{
				OFFSET -1.745558 -29.803308 -13.615400
				CHANNELS 3 Xrotation Yrotation Zrotation
				JOINT LeftToeBase
				{
					OFFSET 1.181900 -18.539904 15.226099
					CHANNELS 3 Xrotation Yrotation Zrotation
					JOINT LeftToe_End
					{
						OFFSET -0.863701 1.402801 16.534700
						CHANNELS 3 Xrotation Yrotation Zrotation
						End Site
						{
							OFFSET 0.000000 16.616566 0.000000
						}
					}
				}
			}
		}
	}
	JOINT RightUpLeg
	{
		OFFSET -19.899099 -7.885101 -3.429500
		CHANNELS 3 Xrotation Yrotation Zrotation
		JOINT RightLeg
		{
			OFFSET -1.745560 -36.997807 10.304700
			CHANNELS 3 Xrotation Yrotation Zrotation
			JOINT RightFoot
			{
				OFFSET 1.745558 -29.803308 -13.615400
				CHANNELS 3 Xrotation Yrotation Zrotation
				JOINT RightToeBase
				{
					OFFSET -1.181900 -18.539904 15.226099
					CHANNELS 3 Xrotation Yrotation Zrotation
					JOINT RightToe_End
					{
						OFFSET 0.863701 1.402801 16.534700
						CHANNELS 3 Xrotation Yrotation Zrotation
						End Site
						{
							OFFSET 0.000000 16.616566 0.000000
						}
					}
				}
			}
		}
	}
}
MOTION
Frames: 4
Frame Time: 0.033333
-7.508297 63.457245 81.703712 -236.790637 64.632311 -481.617184 15.663799 4.667300 -2.117657 15.125666 8.711068 -7.868562 3.430462 10.497439 -4.007056 -4.492856 -14.822803 -32.847394 27.798846 -36.208930 33.185461 -0.000001 -0.000000 0.000000 -3.256901 5.142083 -11.087741 17.946590 7.348888 -55.482648 171.444237 -133.015175 167.890640 11.777280 -30.602762 39.165975 16.379909 -15.925720 -1.523155 0.729710 17.615845 -2.310927 -5.469187 7.066274 7.224866 -0.000000 0.000002 0.000000 -1.266824 5.632478 -9.470740 -0.413062 -0.465118 -23.375592 -1.228414 0.365256 -6.634485 -0.000003 0.000000 -0.000002 0.346335 5.000945 -9.611995 -0.245188 -0.249249 -14.049940 -0.006914 0.014501 -8.767091 -0.000001 -0.000001 0.000003 1.741192 2.288405 -7.863584 0.561721 -0.513569 -1.181229 0.342944 -0.297846 -2.959051 0.000001 -0.000001 0.000008 1.805637 -5.260245 -7.684093 1.268071 -0.650362 -3.713485 0.806747 -0.199059 6.198141 -0.000000 0.000001 0.000001 1.203623 22.937165 4.854866 4.475957 79.630894 10.526303 47.400335 43.961420 -42.221303 -37.081131 -40.166071 -0.429087 55.149536 18.649575 -29.698284 -0.442525 -14.180542 7.313144 21.666967 -29.244531 9.142365 -0.000001 -0.000001 0.000001 5.673396 7.585005 36.844158 1.050465 3.824541 68.900209 0.499564 3.026039 62.196474 -0.000003 -0.000001 -0.000001 -0.125701 1.886078 45.000742 -1.168987 3.204691 68.417650 -0.936420 1.813640 41.107562 0.000002 0.000005 -0.000004 -5.312005 1.216626 58.508821 -0.745241 1.667567 48.011295 -0.816458 1.840619 53.666555 -0.000000 -0.000001 -0.000003 -7.756828 -9.376471 47.264007 -0.526040 1.541587 45.600532 -0.508188 0.803439 24.986632 0.000003 -0.000001 0.000000 -87.381185 -0.384188 4.199507 27.976079 -38.804856 -8.386518 20.924247 -14.328936 -21.308515 0.273105 -4.452352 -0.091711 -0.000000 -0.000000 0.000000 -27.003088 -34.302463 -52.852776 54.783383 6.832517 9.008347 -43.060914 -8.792553 21.904097 9.879710 -12.060345 16.549946 0.000000 0.000001 -0.000000 
-7.739983 63.218628 83.184273 -235.745181 63.657343 -482.534997 15.746501 4.763312 -2.540353 15.315876 8.849126 -8.392238 3.622454 10.732394 -4.513219 -2.246384 -13.678311 -32.067400 26.126809 -36.326067 29.891917 -0.000003 -0.000000 -0.000001 -3.213777 4.877887 -11.234489 14.536813 5.743093 -57.010523 177.531984 -139.638423 174.041416 4.935691 -24.029312 33.095190 17.631836 -20.266389 -0.459509 1.015753 18.313166 -1.535795 -5.837565 8.275065 8.199502 -0.000000 -0.000000 0.000002 -2.198827 5.566524 -7.112805 -0.292464 -0.517729 -24.327723 -0.976996 0.516322 -1.813627 -0.000003 -0.000001 -0.000004 -0.244875 3.985591 -10.517350 -0.165266 -0.283871 -15.390802 0.115175 0.080453 -8.536250 -0.000002 0.000002 0.000002 1.677468 1.538206 -10.940636 0.557785 -0.696193 -4.374493 0.208375 -0.262209 -3.001838 -0.000000 -0.000000 0.000004 2.624837 -5.295236 -9.516295 1.558047 -0.903568 -7.433543 1.013549 -0.262340 4.639994 -0.000001 0.000003 -0.000003 0.948547 22.032384 6.594129 29.744559 74.612222 -13.292322 51.001115 44.187967 -50.427225 -24.807177 -38.580627 -0.123342 55.149539 18.649574 -29.698284 -0.442526 -14.180542 7.313146 21.666967 -29.244531 9.142370 -0.000002 0.000000 0.000002 5.673397 7.585005 36.844161 1.050467 3.824536 68.900203 0.499565 3.026046 62.196474 -0.000001 -0.000003 -0.000001 -0.125698 1.886077 45.000742 -1.168988 3.204688 68.417657 -0.936423 1.813638 41.107558 -0.000001 -0.000001 -0.000002 -5.312004 1.216620 58.508821 -0.745238 1.667564 48.011295 -0.816458 1.840619 53.666552 -0.000003 -0.000000 -0.000003 -7.756832 -9.376470 47.264014 -0.526043 1.541586 45.600525 -0.508184 0.803438 24.986630 -0.000003 0.000001 0.000007 -87.260919 -0.603796 4.475446 25.295109 -39.176869 -8.234814 21.129009 -14.981771 -23.590961 0.293888 -4.451213 -0.104273 -0.000000 -0.000003 0.000000 -26.296298 -34.668425 -50.965929 56.475119 6.596173 9.155673 -45.652629 -9.647105 20.782674 9.888668 -12.058124 16.571514 -0.000000 -0.000001 -0.000000 
-7.811676 63.106514 84.108139 -234.416518 63.167167 -483.667442 15.812445 4.572725 -2.517390 15.427731 8.416487 -8.091413 3.734224 10.243080 -4.326312 -0.216887 -16.258517 -27.512147 22.461384 -35.432405 23.872633 0.000003 0.000000 0.000001 -3.110249 4.329423 -11.531335 11.155894 4.780552 -58.026412 181.028235 -144.494510 177.306711 0.270367 -18.856100 28.743950 19.369580 -24.275575 1.477483 1.279020 18.940511 -0.842241 -6.189691 9.336168 9.084644 -0.000001 -0.000006 0.000002 -3.023072 5.440110 -4.991368 -0.179535 -0.556847 -24.942531 -0.759819 0.690038 2.497331 -0.000002 0.000001 0.000001 -0.802405 3.092630 -11.335764 -0.096176 -0.327297 -16.776285 0.224312 0.137656 -8.375044 -0.000001 0.000003 0.000002 1.558191 0.867323 -13.898195 0.539613 -0.889018 -7.813978 0.087283 -0.229373 -3.018841 -0.000002 -0.000002 0.000001 3.355568 -5.372080 -11.037733 1.791613 -1.163007 -10.744999 1.196516 -0.327541 3.264959 -0.000002 0.000001 0.000001 0.791450 21.395644 7.858401 38.804589 70.168214 -21.785621 53.414603 45.369825 -56.862496 -12.498016 -36.076612 2.002254 55.149536 18.649572 -29.698277 -0.442523 -14.180544 7.313147 21.666960 -29.244527 9.142367 0.000001 -0.000001 0.000002 5.673396 7.585009 36.844161 1.050468 3.824536 68.900203 0.499566 3.026047 62.196474 0.000003 -0.000003 -0.000001 -0.125703 1.886074 45.000739 -1.168990 3.204692 68.417643 -0.936422 1.813641 41.107565 0.000006 -0.000001 -0.000004 -5.312008 1.216622 58.508821 -0.745239 1.667568 48.011295 -0.816461 1.840621 53.666552 0.000002 0.000001 -0.000001 -7.756839 -9.376466 47.264004 -0.526037 1.541587 45.600529 -0.508185 0.803438 24.986628 -0.000001 -0.000000 0.000002 -86.789356 -0.651690 4.438960 23.494609 -39.543452 -8.158560 21.234582 -15.269871 -25.039221 0.295305 -4.450355 -0.104953 -0.000000 0.000002 0.000000 -25.320252 -35.098324 -49.713604 57.305608 6.370999 9.226639 -47.288115 -10.315335 20.185613 9.889033 -12.057970 16.572491 -0.000000 0.000003 -0.000000 
-7.749233 63.123375 84.872520 -232.876393 63.230620 -484.885511 15.565636 4.477390 -2.450594 14.923752 8.161694 -7.790812 3.223678 9.927967 -4.103593 1.174523 -21.762280 -20.107196 18.490292 -34.105494 17.049814 -0.000000 0.000000 0.000001 -3.005858 3.582444 -12.122603 7.902864 3.902528 -58.387817 183.996963 -147.951514 179.609400 -3.906143 -14.643466 24.870127 21.442945 -27.394569 4.031894 1.495703 19.442931 -0.288268 -6.500686 10.148807 9.798519 0.000002 0.000002 0.000000 -3.669397 5.290219 -3.287691 -0.081767 -0.573107 -25.098734 -0.594571 0.855811 5.925451 -0.000000 -0.000003 -0.000003 -1.260699 2.392452 -11.973375 -0.042233 -0.367979 -17.952770 0.310803 0.183230 -8.274672 0.000002 0.000001 -0.000000 1.417878 0.337421 -16.401854 0.510108 -1.063824 -11.028722 -0.009873 -0.202016 -2.990383 0.000005 0.000003 0.000004 3.933337 -5.455363 -12.072758 1.958186 -1.387070 -13.329903 1.340341 -0.381778 2.223328 -0.000002 -0.000001 0.000001 0.700603 21.022877 8.712569 43.415220 66.771977 -25.316607 54.571709 45.268991 -60.314102 -4.483219 -31.380952 2.430897 55.149533 18.649575 -29.698277 -0.442522 -14.180544 7.313147 21.666965 -29.244527 9.142366 0.000003 0.000000 0.000001 5.673397 7.585007 36.844161 1.050471 3.824534 68.900203 0.499562 3.026041 62.196468 -0.000000 0.000000 -0.000001 -0.125698 1.886077 45.000742 -1.168992 3.204689 68.417650 -0.936424 1.813639 41.107558 0.000000 0.000000 -0.000004 -5.312004 1.216624 58.508821 -0.745238 1.667568 48.011298 -0.816459 1.840618 53.666548 0.000002 0.000001 -0.000003 -7.756834 -9.376467 47.264004 -0.526040 1.541585 45.600529 -0.508186 0.803435 24.986630 -0.000002 -0.000000 0.000002 -85.790038 -0.756286 4.472810 22.302856 -39.752005 -8.075084 21.019393 -15.397031 -26.082790 0.296487 -4.448526 -0.105505 -0.000000 -0.000002 0.000000 -24.054659 -35.576656 -48.826184 57.726382 6.187705 9.240426 -48.521650 -10.721076 19.765531 9.888831 -12.058100 16.571975 -0.000000 -0.000002 0.000000 
